<?xml version="1.0"?>
<svg xmlns="http://www.w3.org/2000/svg" xmlns:xlink="http://www.w3.org/1999/xlink" xmlns:svgjs="http://svgjs.com/svgjs" version="1.1" width="512" height="512" x="0" y="0" viewBox="0 0 24 24" style="enable-background:new 0 0 512 512" xml:space="preserve"><g><g xmlns="http://www.w3.org/2000/svg" id="_01_align_center" data-name="01 align center"><path d="M19,8V7.068A5.073,5.073,0,0,0,13.932,2H13V0H11V2h-.932a5.068,5.068,0,0,0-1.6,9.875L11,12.72V20h-.932A3.071,3.071,0,0,1,7,16.932V16H5v.932A5.073,5.073,0,0,0,10.068,22H11v2h2V22h.932a5.068,5.068,0,0,0,1.6-9.875L13,11.28V4h.932A3.071,3.071,0,0,1,17,7.068V8Zm-4.1,6.021A3.068,3.068,0,0,1,13.932,20H13V13.387ZM11,10.613,9.1,9.979A3.068,3.068,0,0,1,10.068,4H11Z" fill="#ffffff" data-original="#000000"/></g></g></svg>
